<svg xmlns="http://www.w3.org/2000/svg" version="1.1" xmlns:xlink="http://www.w3.org/1999/xlink" xmlns:svgjs="http://svgjs.dev/svgjs" width="1500" height="1500" viewBox="0 0 1500 1500"><rect width="1500" height="1500" fill="#000000"></rect><g transform="matrix(0.6666666666666666,0,0,0.6666666666666666,250,250)"><svg viewBox="0 0 280 280" data-background-color="#755bb4" preserveAspectRatio="xMidYMid meet" height="1500" width="1500" xmlns="http://www.w3.org/2000/svg" xmlns:xlink="http://www.w3.org/1999/xlink"><g id="tight-bounds" transform="matrix(1,0,0,1,0,0)"><svg viewBox="0 0 280 280" height="280" width="280"><g><svg viewBox="0 0 280 280" height="280" width="280"><g><svg viewBox="0 0 280 280" height="280" width="280"><g id="textblocktransform"><svg viewBox="0 0 280 280" height="280" width="280" id="textblock"><g><svg viewBox="0 0 280 280" height="280" width="280"><g transform="matrix(1,0,0,1,57.50420886156945,57.50420886156945)"><svg viewBox="0 0 164.9915822768611 164.9915822768611" height="164.9915822768611" width="164.9915822768611"><g id="icon-0"><circle r="82" cx="82.49579113843055" cy="82.49579113843055" fill="#ffffff" data-fill-palette-color="accent"></circle><svg xmlns="http://www.w3.org/2000/svg" xmlns:xlink="http://www.w3.org/1999/xlink" version="1.1" x="24.748737341529164" y="24.74873734152917" viewBox="19.682354658322133 3.5 35.57297155366782 67.95874717630606" enable-background="new 0 0 75 75" xml:space="preserve" height="115.49410759380275" width="115.49410759380275" class="icon-xg-0" data-fill-palette-color="quaternary" id="xg-0"><path d="M21.2 59.5c-1.1-2.6-4.2-12.2 3.8-24.7C36 18 31.7 3.5 31.7 3.5S46 8.8 41.7 37.5c-1 6.5-0.9 9 2 9.4 5 0.7 3.1-19.7 3.1-19.7s3.9 2 6.8 12.1c1.5 5.3 1.8 9.5 1.6 12.5-1 18.1-16.5 19.6-16.5 19.6S26.9 73 21.2 59.5z" fill="#000000" data-fill-palette-color="quaternary"></path></svg></g></svg></g><g id="text-0"><path d="M32.446 97.752v0c-0.786 2.024-1.862 3.678-3.23 4.961-1.368 1.283-3.017 2.076-4.949 2.381-1.932 0.304-4.153-0.031-6.664-1.006v0l-14.078-5.464-2.881 2.608-0.644-0.25 3.924-10.109 0.644 0.25 0.367 3.869 13.472 5.229c2.236 0.868 4.154 1.207 5.754 1.016 1.591-0.186 2.902-0.772 3.933-1.757 1.035-0.977 1.841-2.208 2.418-3.695v0c0.46-1.185 0.63-2.383 0.51-3.594-0.12-1.211-0.616-2.336-1.487-3.375-0.868-1.03-2.222-1.902-4.061-2.615v0l-14.971-5.811-3.108 3.449-0.644-0.25 3.912-10.081 0.644 0.25 0.344 3.815 14.116 5.479c2.511 0.975 4.377 2.226 5.598 3.754 1.22 1.528 1.902 3.23 2.043 5.106 0.144 1.869-0.176 3.816-0.962 5.84z" fill="#ffffff" data-fill-palette-color="primary"></path><path d="M95.633 33.479v0c-1.637 0.734-3.093 1.206-4.369 1.416-1.273 0.202-2.651 0.269-4.134 0.204v0l-3.304-6.313 0.63-0.283 3.818 3.327c1.31 0.369 2.492 0.528 3.547 0.477 1.057-0.045 2.049-0.275 2.977-0.691v0c1.555-0.697 2.592-1.651 3.111-2.863 0.516-1.218 0.46-2.526-0.166-3.924v0c-0.52-1.16-1.186-1.957-1.999-2.392-0.809-0.428-1.812-0.683-3.008-0.763-1.19-0.084-2.594-0.159-4.212-0.225v0c-1.526-0.077-2.86-0.224-4.005-0.441-1.144-0.218-2.119-0.628-2.924-1.231-0.814-0.607-1.494-1.518-2.039-2.735v0c-0.402-0.897-0.576-1.873-0.523-2.929 0.05-1.047 0.294-2.09 0.732-3.129 0.438-1.04 1.032-1.973 1.784-2.799 0.758-0.829 1.639-1.469 2.642-1.919v0c1.217-0.545 2.404-0.904 3.562-1.077 1.161-0.166 2.401-0.229 3.722-0.189v0l3.233 6.154-0.64 0.286-3.679-3.343c-1.234-0.267-2.262-0.402-3.084-0.403-0.825 0.008-1.685 0.213-2.582 0.615v0c-1.16 0.52-1.939 1.344-2.337 2.472-0.396 1.134-0.333 2.281 0.186 3.44v0c0.604 1.348 1.486 2.214 2.645 2.599 1.153 0.387 2.789 0.61 4.909 0.669v0c1.969 0.074 3.618 0.216 4.947 0.426 1.329 0.21 2.44 0.638 3.332 1.285 0.892 0.647 1.641 1.644 2.245 2.993v0c0.557 1.242 0.781 2.448 0.673 3.618-0.105 1.177-0.433 2.269-0.983 3.276-0.544 1.004-1.239 1.889-2.086 2.652-0.85 0.758-1.724 1.338-2.621 1.74z" fill="#ffffff" data-fill-palette-color="primary"></path><path d="M182.503 31.14l-10.174-3.754 0.239-0.648 3.862-0.431 8.232-22.311-2.656-2.837 0.239-0.648 10.174 3.754-0.239 0.648-3.862 0.432-3.547 9.612 13.849 5.11 3.547-9.613-2.657-2.836 0.24-0.648 10.183 3.757-0.239 0.648-3.862 0.432-8.232 22.31 2.656 2.837-0.239 0.648-10.184-3.757 0.239-0.648 3.863-0.432 3.86-10.464-13.848-5.11-3.861 10.464 2.656 2.837z" fill="#ffffff" data-fill-palette-color="primary"></path><path d="M250.859 94.041l-3.589-8.656 0.638-0.264 2.385 2.012 28.957 0.022 0.75 1.809-20.386 20.294-0.334 3.286-0.638 0.264-4.123-9.941 0.638-0.264 2.833 2.954 6.16-6.081-4.04-9.741-8.636 0.111 0.023 3.93zM274.214 89.623l-11.512 0.12 3.294 7.941z" fill="#ffffff" data-fill-palette-color="primary"></path><path d="M8.998 144.22c0-1.84 1.492-3.332 3.332-3.332 1.84 0 3.332 1.492 3.333 3.332 0 1.84-1.492 3.332-3.333 3.333-1.84 0-3.332-1.492-3.332-3.333z" fill="#ffffff" data-fill-palette-color="primary"></path><path d="M268.768 144.22c0-1.84 1.492-3.332 3.332-3.332 1.84 0 3.332 1.492 3.333 3.332 0 1.84-1.492 3.332-3.333 3.333-1.84 0-3.332-1.492-3.332-3.333z" fill="#ffffff" data-fill-palette-color="primary"></path></g><g id="text-1"><path d="M13.428 198.222v0c-0.792-2.037-1.12-3.996-0.982-5.878 0.144-1.885 0.83-3.601 2.057-5.147 1.229-1.54 3.109-2.802 5.639-3.787v0l14.179-5.517 0.366-3.892 0.653-0.254 3.962 10.183-0.653 0.254-2.9-2.621-13.565 5.277c-2.254 0.877-3.911 1.927-4.968 3.15-1.058 1.223-1.637 2.55-1.736 3.983-0.099 1.432 0.142 2.894 0.723 4.386v0c0.466 1.198 1.153 2.206 2.061 3.025 0.915 0.816 2.049 1.315 3.403 1.497 1.351 0.175 2.949-0.097 4.794-0.814v0l15.082-5.869-0.038-4.675 0.653-0.254 3.947 10.145-0.653 0.254-2.847-2.598-14.218 5.532c-2.53 0.984-4.768 1.324-6.715 1.02-1.947-0.304-3.612-1.105-4.995-2.404-1.374-1.294-2.457-2.96-3.249-4.996z" fill="#ffffff" data-fill-palette-color="primary"></path><path d="M87.291 273.65v0c-1.649-0.739-2.98-1.516-3.993-2.332-1.004-0.819-1.979-1.809-2.926-2.972v0l2.534-6.715 0.631 0.283 0.063 5.1c0.6 1.233 1.271 2.23 2.014 2.992 0.743 0.762 1.581 1.353 2.516 1.772v0c1.568 0.703 2.981 0.843 4.24 0.42 1.261-0.429 2.208-1.349 2.841-2.76v0c0.523-1.166 0.677-2.2 0.463-3.102-0.223-0.898-0.705-1.822-1.446-2.771-0.739-0.956-1.624-2.064-2.656-3.325v0c-0.961-1.199-1.745-2.299-2.35-3.301-0.603-1.008-0.948-2.018-1.037-3.029-0.086-1.018 0.145-2.138 0.693-3.361v0c0.405-0.903 1.02-1.689 1.847-2.358 0.827-0.669 1.774-1.186 2.841-1.55 1.076-0.369 2.179-0.545 3.309-0.528 1.132 0.01 2.203 0.242 3.213 0.694v0c1.223 0.548 2.287 1.198 3.193 1.951 0.909 0.761 1.79 1.653 2.642 2.674v0l-2.467 6.565-0.64-0.287 0.046-5.017c-0.619-1.106-1.208-1.968-1.766-2.588-0.552-0.616-1.28-1.127-2.183-1.531v0c-1.173-0.526-2.318-0.557-3.437-0.095-1.116 0.456-1.936 1.271-2.462 2.444v0c-0.607 1.355-0.667 2.597-0.179 3.726 0.481 1.127 1.41 2.507 2.787 4.141v0c1.265 1.531 2.266 2.868 3.003 4.012 0.731 1.141 1.154 2.264 1.269 3.37 0.108 1.103-0.141 2.331-0.748 3.686v0c-0.562 1.254-1.32 2.232-2.275 2.934-0.951 0.711-1.99 1.198-3.117 1.461-1.127 0.263-2.261 0.331-3.402 0.204-1.138-0.133-2.158-0.402-3.061-0.807z" fill="#ffffff" data-fill-palette-color="primary"></path><path d="M189.195 275.713l-10.253 3.776-0.243-0.658 2.674-2.852-8.278-22.48-3.884-0.437-0.243-0.658 10.254-3.776 0.242 0.658-2.674 2.852 3.566 9.683 13.949-5.136-3.566-9.683-3.885-0.437-0.242-0.658 10.254-3.775 0.242 0.657-2.674 2.852 8.278 22.481 3.885 0.437 0.242 0.657-10.253 3.776-0.243-0.658 2.674-2.852-3.882-10.543-13.949 5.136 3.882 10.544 3.885 0.437z" fill="#ffffff" data-fill-palette-color="primary"></path><path d="M268.887 202.06l-3.626 8.718-0.647-0.269-0.26-3.133-20.571-20.68 0.756-1.818 28.978 0.117 2.584-2.107 0.647 0.269-4.164 10.013-0.647-0.269 0.106-4.12-8.73-0.081-4.081 9.813 6.228 6.096 2.78-2.818zM249.124 188.538l8.274 8.13 3.325-7.995z" fill="#ffffff" data-fill-palette-color="primary"></path></g></svg></g></svg></g></svg></g></svg></g><defs></defs></svg><rect width="280" height="280" fill="none" stroke="none" visibility="hidden"></rect></g></svg></g></svg>