<?xml version="1.0" standalone="no"?><svg xmlns="http://www.w3.org/2000/svg" viewBox="0 0 1440 320"><path fill="#8a2be2" fill-opacity="1" d="M0,192L10.9,181.3C21.8,171,44,149,65,122.7C87.3,96,109,64,131,48C152.7,32,175,32,196,69.3C218.2,107,240,181,262,176C283.6,171,305,85,327,90.7C349.1,96,371,192,393,218.7C414.5,245,436,203,458,197.3C480,192,502,224,524,208C545.5,192,567,128,589,96C610.9,64,633,64,655,101.3C676.4,139,698,213,720,213.3C741.8,213,764,139,785,122.7C807.3,107,829,149,851,170.7C872.7,192,895,192,916,170.7C938.2,149,960,107,982,90.7C1003.6,75,1025,85,1047,80C1069.1,75,1091,53,1113,90.7C1134.5,128,1156,224,1178,229.3C1200,235,1222,149,1244,138.7C1265.5,128,1287,192,1309,192C1330.9,192,1353,128,1375,90.7C1396.4,53,1418,43,1429,37.3L1440,32L1440,0L1429.1,0C1418.2,0,1396,0,1375,0C1352.7,0,1331,0,1309,0C1287.3,0,1265,0,1244,0C1221.8,0,1200,0,1178,0C1156.4,0,1135,0,1113,0C1090.9,0,1069,0,1047,0C1025.5,0,1004,0,982,0C960,0,938,0,916,0C894.5,0,873,0,851,0C829.1,0,807,0,785,0C763.6,0,742,0,720,0C698.2,0,676,0,655,0C632.7,0,611,0,589,0C567.3,0,545,0,524,0C501.8,0,480,0,458,0C436.4,0,415,0,393,0C370.9,0,349,0,327,0C305.5,0,284,0,262,0C240,0,218,0,196,0C174.5,0,153,0,131,0C109.1,0,87,0,65,0C43.6,0,22,0,11,0L0,0Z"></path></svg>